<svg width="66" height="60" viewBox="0 0 66 60" fill="none" xmlns="http://www.w3.org/2000/svg">
<g filter="url(#filter0_dd_11685_23)">
<rect width="60" height="60" rx="14" fill="url(#paint0_linear_11685_23)"/>
</g>
<path fill-rule="evenodd" clip-rule="evenodd" d="M45.7308 23.2732H15.2692C14.5683 23.2732 14 22.7072 14 22.0091V11.2641C14 10.566 14.5683 10 15.2692 10H20.9808C21.6817 10 22.25 10.566 22.25 11.2641V15.0565H25.4231V11.2641C25.4231 10.566 25.9913 10 26.6923 10H34.3077C35.0087 10 35.5769 10.566 35.5769 11.2641V15.0565H38.75V11.2641C38.75 10.566 39.3183 10 40.0192 10H45.7308C46.4317 10 47 10.566 47 11.2641V22.0091C47 22.7072 46.4317 23.2732 45.7308 23.2732ZM17.8077 27.0655V25.8014C17.8077 25.4568 18.0943 25.1694 18.4479 25.1694H42.5521C42.9072 25.1694 43.1923 25.4523 43.1923 25.8014V27.0655C40.918 27.0659 38.8765 28.0591 37.481 29.6335C36.0854 28.0586 34.0432 27.0655 31.7678 27.0655H29.2322C26.9575 27.0655 24.9156 28.0585 23.5199 29.633C22.1242 28.0585 20.0823 27.0655 17.8077 27.0655ZM43.8283 28.9617C41.1791 28.9617 38.8456 30.3087 37.481 32.3524C36.1165 30.3085 33.783 28.9617 31.1332 28.9617H29.8668C27.2179 28.9617 24.8846 30.3084 23.5199 32.3517C22.1552 30.3084 19.822 28.9617 17.1731 28.9617C16.4721 28.9617 15.9038 29.5277 15.9038 30.2258V49.1875C15.9038 49.8857 16.4721 50.4516 17.1731 50.4516H23.5206L23.521 50.4516C24.2211 50.4507 24.7885 49.8851 24.7885 49.1875V36.5464C24.7885 33.7539 27.0622 31.4899 29.8668 31.4899H31.1332C33.9385 31.4899 36.2115 33.753 36.2115 36.5464V49.1875C36.2115 49.8857 36.7798 50.4516 37.4808 50.4516H43.8283C44.5293 50.4516 45.0975 49.8857 45.0975 49.1875V30.2258C45.0975 29.5277 44.5293 28.9617 43.8283 28.9617ZM38.75 44.0746L42.4131 41.237C42.4601 41.2006 42.5089 41.168 42.5591 41.1391V38.0064L38.75 40.9571V44.0746ZM42.4131 34.9165L38.75 37.7542V36.5464C38.75 34.6904 39.7544 33.0679 41.2515 32.1884C42.0069 31.7446 42.5591 31.6163 42.5591 31.6163V34.8187C42.5089 34.8475 42.4601 34.8801 42.4131 34.9165ZM38.75 47.2775V47.9234H42.5591V44.3269L38.75 47.2775ZM18.5869 41.237C18.5403 41.201 18.492 41.1686 18.4423 41.1399V38.0074L22.2514 40.9581V44.0757L18.5869 41.237ZM18.4423 34.8194C18.492 34.8481 18.5404 34.8804 18.587 34.9165L22.2514 37.7551V36.5464C22.2514 34.1861 20.627 32.2034 18.4423 31.6462V34.8194ZM18.4423 47.9234V44.3279L22.2514 47.2786V47.9234H18.4423Z" fill="white"/>
<defs>
<filter id="filter0_dd_11685_23" x="-6" y="-2" width="72" height="72" filterUnits="userSpaceOnUse" color-interpolation-filters="sRGB">
<feFlood flood-opacity="0" result="BackgroundImageFix"/>
<feColorMatrix in="SourceAlpha" type="matrix" values="0 0 0 0 0 0 0 0 0 0 0 0 0 0 0 0 0 0 127 0" result="hardAlpha"/>
<feOffset dy="4"/>
<feGaussianBlur stdDeviation="3"/>
<feColorMatrix type="matrix" values="0 0 0 0 0 0 0 0 0 0 0 0 0 0 0 0 0 0 0.05 0"/>
<feBlend mode="normal" in2="BackgroundImageFix" result="effect1_dropShadow_11685_23"/>
<feColorMatrix in="SourceAlpha" type="matrix" values="0 0 0 0 0 0 0 0 0 0 0 0 0 0 0 0 0 0 127 0" result="hardAlpha"/>
<feOffset dy="1"/>
<feGaussianBlur stdDeviation="1.5"/>
<feColorMatrix type="matrix" values="0 0 0 0 0 0 0 0 0 0 0 0 0 0 0 0 0 0 0.1 0"/>
<feBlend mode="normal" in2="effect1_dropShadow_11685_23" result="effect2_dropShadow_11685_23"/>
<feBlend mode="normal" in="SourceGraphic" in2="effect2_dropShadow_11685_23" result="shape"/>
</filter>
<linearGradient id="paint0_linear_11685_23" x1="-24.875" y1="27.4375" x2="30" y2="87.4375" gradientUnits="userSpaceOnUse">
<stop stop-color="#3142C6"/>
<stop offset="1" stop-color="#AF61D1"/>
</linearGradient>
</defs>
</svg>
